<svg width="40" height="40" viewBox="0 0 40 40" fill="none" xmlns="http://www.w3.org/2000/svg">
<g clip-path="url(#clip0_8_69)">
<path d="M35.1496 3.67894C34.0683 3.66295 31.5565 4.03004 27.3626 6.83692C25.0769 6.26566 22.645 5.98377 20.2088 5.98377C17.5284 5.98377 14.8196 6.32414 12.2935 7.01711C6.27236 2.90945 3.61468 3.75123 3.61468 3.75123C1.87965 8.09006 2.95182 11.3024 3.2777 12.1002C1.23842 14.3011 -0.0065155 17.1116 -0.0065155 20.5561C-0.0065155 23.1565 0.289455 25.4889 1.01255 27.5165C1.05266 27.6729 1.03966 27.6381 1.10723 27.772C1.26653 28.1918 1.44366 28.5992 1.64274 28.9926C1.71096 29.1342 1.77305 29.239 1.77305 29.239C3.80575 33.0281 7.81287 35.4757 14.9425 36.2442L25.7256 36.2564C33.329 35.5024 36.9776 33.0475 38.6589 29.2329L38.7658 28.9845C38.9251 28.5992 39.0639 28.1982 39.4438 26.8486C39.8236 25.499 39.9935 23.1617 39.9935 20.5551C39.9935 16.8166 38.5894 13.8252 36.3092 11.5494C36.7077 10.2632 37.24 7.40687 35.7778 3.75019C35.7778 3.75019 35.5728 3.6852 35.1497 3.67891L35.1496 3.67894ZM26.652 17.3981C28.4077 17.3943 29.9117 17.6957 31.0408 18.8804V18.8814C32.4537 20.365 33.2805 22.1563 33.2805 24.0866C33.2805 33.0996 27.4839 33.3447 20.334 33.3447C13.183 33.3447 7.38757 32.0958 7.38757 24.0866C7.38757 22.169 8.20231 20.3885 9.59775 18.9109C11.9255 16.4483 15.8646 17.7523 20.3341 17.7523C22.6283 17.752 24.783 17.4021 26.6521 17.3981L26.652 17.3981ZM13.3339 20.0522C11.8462 20.0522 10.6401 22.0635 10.6401 24.5458C10.6401 27.0285 11.8462 29.0405 13.3339 29.0405C14.8216 29.0405 16.0277 27.0285 16.0277 24.5458C16.0277 22.0639 14.8217 20.0539 13.3339 20.0522ZM27.7871 20.0522C26.2994 20.0522 25.0933 22.0635 25.0933 24.5458C25.0933 27.0285 26.2993 29.0405 27.7871 29.0405C29.2748 29.0405 30.4809 27.0285 30.4809 24.5458C30.4809 22.0639 29.2749 20.0539 27.7871 20.0522Z" fill="#546A7B"/>
</g>
<defs>
<clipPath id="clip0_8_69">
<rect width="40" height="40" fill="white"/>
</clipPath>
</defs>
</svg>
