<svg width="40" height="40" viewBox="0 0 40 40" fill="none" xmlns="http://www.w3.org/2000/svg">
<g clip-path="url(#clip0_8_67)">
<path d="M24.143 20.4342C24.143 18.2724 22.3761 16.5134 20.2045 16.5134C18.0331 16.5134 16.2663 18.2724 16.2663 20.4342C16.2663 22.5965 18.0331 24.3552 20.2045 24.3552C22.3761 24.3552 24.143 22.5965 24.143 20.4342ZM29.9942 0.0240784H10.0057C4.4986 0.0240784 0.0182419 4.48496 0.0182419 9.96796V12.7386H14.7148C16.2655 11.6388 18.1595 10.989 20.2045 10.989C22.2494 10.989 24.1437 11.6388 25.6945 12.7386H39.9816V9.96796C39.9816 4.48492 35.5012 0.0240784 29.9942 0.0240784ZM34.039 9.48148C34.039 10.0891 33.5398 10.5864 32.9293 10.5864H29.5005C28.89 10.5864 28.3908 10.0891 28.3908 9.48148V6.0674C28.3908 5.4598 28.89 4.96252 29.5005 4.96252H32.9293C33.5398 4.96252 34.039 5.45972 34.039 6.0674V9.48148ZM29.6915 20.4342C29.6915 25.6428 25.4354 29.8795 20.2044 29.8795C14.9733 29.8795 10.7176 25.6428 10.7176 20.4342C10.7176 19.0002 11.042 17.6404 11.6189 16.4214H0.0182419V30.032C0.0182419 35.5154 4.4986 39.9758 10.0057 39.9758H29.9942C35.5013 39.9758 39.9816 35.5153 39.9816 30.032V16.4214H28.7902C29.3671 17.6404 29.6915 19.0002 29.6915 20.4342Z" fill="#546A7B"/>
</g>
<defs>
<clipPath id="clip0_8_67">
<rect width="40" height="40" fill="white"/>
</clipPath>
</defs>
</svg>
