<svg width="40" height="40" viewBox="0 0 40 40" fill="none" xmlns="http://www.w3.org/2000/svg">
<g clip-path="url(#clip0_8_71)">
<path d="M7.84256 0.00999832C3.53388 0.00999832 0.00748062 3.53632 0.00748062 7.84508V32.1587C0.00748062 36.4674 3.5338 39.9925 7.84256 39.9925H32.1562C36.4649 39.9925 39.99 36.4674 39.99 32.1587V7.84508C39.99 3.5364 36.4649 0.00999832 32.1562 0.00999832H7.84256ZM9.8132 6.60792C11.8791 6.60792 13.1516 7.96416 13.1909 9.74692C13.1909 11.4903 11.879 12.8847 9.77324 12.8847H9.73448C7.70788 12.8847 6.398 11.4904 6.398 9.74692C6.398 7.9642 7.74752 6.60792 9.81316 6.60792H9.8132ZM27.6164 14.9403C31.5896 14.9403 34.568 17.5372 34.568 23.1178V33.5357H28.5299V23.8162C28.5299 21.3738 27.656 19.7075 25.4708 19.7075C23.8027 19.7075 22.8084 20.8306 22.3718 21.9156C22.2123 22.3038 22.1731 22.8459 22.1731 23.3889V33.5357H16.135C16.135 33.5357 16.2142 17.0712 16.135 15.3664H22.1744V17.9394C22.9768 16.7014 24.412 14.9403 27.6164 14.9403V14.9403ZM6.75416 15.3677H12.7923V33.5358H6.75416V15.3677Z" fill="#546A7B"/>
</g>
<defs>
<clipPath id="clip0_8_71">
<rect width="40" height="40" fill="white"/>
</clipPath>
</defs>
</svg>
